<mxfile host="app.diagrams.net" modified="2023-12-17T11:27:08.968Z" agent="Mozilla/5.0 (Windows NT 10.0; Win64; x64) AppleWebKit/537.36 (KHTML, like Gecko) Chrome/120.0.0.0 Safari/537.36 Edg/120.0.0.0" etag="T-_jiAs_j54lTavqZYYw" version="22.1.11" type="device">
  <diagram name="Page-1" id="ot6jUgFBC3PDNzLIinc9">
    <mxGraphModel dx="1002" dy="577" grid="1" gridSize="10" guides="1" tooltips="1" connect="1" arrows="1" fold="1" page="1" pageScale="1" pageWidth="850" pageHeight="1100" math="0" shadow="0">
      <root>
        <mxCell id="0" />
        <mxCell id="1" parent="0" />
        <mxCell id="MtunRxo9DqZx6npIJQF4-3" style="edgeStyle=orthogonalEdgeStyle;rounded=0;orthogonalLoop=1;jettySize=auto;html=1;entryX=0.5;entryY=0;entryDx=0;entryDy=0;" edge="1" parent="1" source="MtunRxo9DqZx6npIJQF4-1" target="MtunRxo9DqZx6npIJQF4-2">
          <mxGeometry relative="1" as="geometry" />
        </mxCell>
        <mxCell id="MtunRxo9DqZx6npIJQF4-1" value="Data Pentahanan&lt;br&gt;di Gardu Induk" style="rounded=0;whiteSpace=wrap;html=1;" vertex="1" parent="1">
          <mxGeometry x="365" y="80" width="120" height="60" as="geometry" />
        </mxCell>
        <mxCell id="MtunRxo9DqZx6npIJQF4-8" style="edgeStyle=orthogonalEdgeStyle;rounded=0;orthogonalLoop=1;jettySize=auto;html=1;entryX=0.5;entryY=0;entryDx=0;entryDy=0;" edge="1" parent="1" source="MtunRxo9DqZx6npIJQF4-2" target="MtunRxo9DqZx6npIJQF4-7">
          <mxGeometry relative="1" as="geometry" />
        </mxCell>
        <mxCell id="MtunRxo9DqZx6npIJQF4-2" value="Inisial Desain:&lt;br&gt;nK, L, D, rod" style="rounded=0;whiteSpace=wrap;html=1;spacing=2;spacingTop=0;" vertex="1" parent="1">
          <mxGeometry x="365" y="180" width="120" height="60" as="geometry" />
        </mxCell>
        <mxCell id="MtunRxo9DqZx6npIJQF4-15" style="edgeStyle=orthogonalEdgeStyle;rounded=0;orthogonalLoop=1;jettySize=auto;html=1;entryX=0.5;entryY=0;entryDx=0;entryDy=0;" edge="1" parent="1" source="MtunRxo9DqZx6npIJQF4-5" target="MtunRxo9DqZx6npIJQF4-14">
          <mxGeometry relative="1" as="geometry" />
        </mxCell>
        <mxCell id="MtunRxo9DqZx6npIJQF4-16" style="edgeStyle=orthogonalEdgeStyle;rounded=0;orthogonalLoop=1;jettySize=auto;html=1;entryX=1;entryY=0.5;entryDx=0;entryDy=0;" edge="1" parent="1" source="MtunRxo9DqZx6npIJQF4-5" target="MtunRxo9DqZx6npIJQF4-2">
          <mxGeometry relative="1" as="geometry">
            <Array as="points">
              <mxPoint x="520" y="530" />
              <mxPoint x="520" y="210" />
            </Array>
          </mxGeometry>
        </mxCell>
        <mxCell id="MtunRxo9DqZx6npIJQF4-5" value="Rg &amp;lt; 1 ohm" style="strokeWidth=1;html=1;shape=mxgraph.flowchart.decision;whiteSpace=wrap;" vertex="1" parent="1">
          <mxGeometry x="375" y="480" width="100" height="100" as="geometry" />
        </mxCell>
        <mxCell id="MtunRxo9DqZx6npIJQF4-10" style="edgeStyle=orthogonalEdgeStyle;rounded=0;orthogonalLoop=1;jettySize=auto;html=1;entryX=0.5;entryY=0;entryDx=0;entryDy=0;" edge="1" parent="1" source="MtunRxo9DqZx6npIJQF4-7" target="MtunRxo9DqZx6npIJQF4-9">
          <mxGeometry relative="1" as="geometry" />
        </mxCell>
        <mxCell id="MtunRxo9DqZx6npIJQF4-7" value="Touch &amp;amp; Step Criteria:&lt;br&gt;Etouch50 or 70, Estep50 or 70" style="rounded=0;whiteSpace=wrap;html=1;spacing=2;spacingTop=0;" vertex="1" parent="1">
          <mxGeometry x="365" y="280" width="120" height="60" as="geometry" />
        </mxCell>
        <mxCell id="MtunRxo9DqZx6npIJQF4-9" value="Mesh &amp;amp; Step Voltage:&lt;br&gt;Em, Es, Km, Ks, Ki, Kii, Kh" style="rounded=0;whiteSpace=wrap;html=1;spacing=2;spacingTop=0;" vertex="1" parent="1">
          <mxGeometry x="365" y="380" width="120" height="60" as="geometry" />
        </mxCell>
        <mxCell id="MtunRxo9DqZx6npIJQF4-11" style="edgeStyle=orthogonalEdgeStyle;rounded=0;orthogonalLoop=1;jettySize=auto;html=1;entryX=0.5;entryY=0;entryDx=0;entryDy=0;entryPerimeter=0;" edge="1" parent="1" source="MtunRxo9DqZx6npIJQF4-9" target="MtunRxo9DqZx6npIJQF4-5">
          <mxGeometry relative="1" as="geometry" />
        </mxCell>
        <mxCell id="MtunRxo9DqZx6npIJQF4-14" value="Hasil Data Desain" style="rounded=0;whiteSpace=wrap;html=1;spacing=2;spacingTop=0;" vertex="1" parent="1">
          <mxGeometry x="365" y="620" width="120" height="60" as="geometry" />
        </mxCell>
        <mxCell id="MtunRxo9DqZx6npIJQF4-17" value="Tidak" style="text;html=1;align=center;verticalAlign=middle;resizable=0;points=[];autosize=1;strokeColor=none;fillColor=none;" vertex="1" parent="1">
          <mxGeometry x="470" y="500" width="50" height="30" as="geometry" />
        </mxCell>
        <mxCell id="MtunRxo9DqZx6npIJQF4-19" value="Ya" style="text;html=1;align=center;verticalAlign=middle;resizable=0;points=[];autosize=1;strokeColor=none;fillColor=none;" vertex="1" parent="1">
          <mxGeometry x="430" y="580" width="40" height="30" as="geometry" />
        </mxCell>
      </root>
    </mxGraphModel>
  </diagram>
</mxfile>
